<?xml version="1.0" encoding="UTF-8" standalone="no"?>
<!DOCTYPE svg PUBLIC "-//W3C//DTD SVG 1.1//EN" "http://www.w3.org/Graphics/SVG/1.1/DTD/svg11.dtd">
<svg version="1.1" xmlns="http://www.w3.org/2000/svg" xmlns:xlink="http://www.w3.org/1999/xlink" preserveAspectRatio="xMidYMid meet" viewBox="0 0 25 25" width="25" height="25"><defs><path d="M24.2 0C24.64 0 25 0.36 25 0.8C25 5.64 25 19.36 25 24.2C25 24.64 24.64 25 24.2 25C19.36 25 5.64 25 0.8 25C0.36 25 0 24.64 0 24.2C0 19.36 0 5.64 0 0.8C0 0.36 0.36 0 0.8 0C5.64 0 19.36 0 24.2 0Z" id="a2uJMdD9HB"></path><path d="M5 20C5 12.2 5 7.87 5 7C5 6.45 4.55 6 4 6C4 6 4 6 4 6C3.45 6 3 6.45 3 7C3 8.3 3 18.7 3 20C3 21.1 3.9 22 5 22C6 22 14 22 15 22C15.55 22 16 21.55 16 21C16 21 16 21 16 21C16 20.45 15.55 20 15 20C13.67 20 10.33 20 5 20ZM20 4C20 2.9 19.1 2 18 2C17.1 2 9.9 2 9 2C7.9 2 7 2.9 7 4C7 5.2 7 14.8 7 16C7 17.1 7.9 18 9 18C9.9 18 17.1 18 18 18C19.1 18 20 17.1 20 16C20 13.6 20 5.2 20 4ZM9 16L9 4L18 4L18 16L9 16Z" id="d1OVvxTdM"></path><path d="M12.81 14.66C15.47 12.47 19.34 12.47 22.01 14.65C22.33 14.91 22.8 14.89 23.09 14.6C23.43 14.26 23.4 13.7 23.03 13.4C19.77 10.74 15.06 10.74 11.8 13.4C11.43 13.7 11.4 14.26 11.74 14.6C12.03 14.89 12.49 14.92 12.81 14.66ZM17.01 19.87C17.23 20.09 17.59 20.09 17.81 19.87C17.89 19.78 18.57 19.11 18.65 19.03C18.92 18.76 18.86 18.3 18.52 18.12C17.82 17.76 16.99 17.76 16.29 18.12C15.96 18.3 15.9 18.76 16.17 19.03C16.34 19.19 16.92 19.78 17.01 19.87ZM15.08 16.97C16.48 15.99 18.35 15.99 19.74 16.97C20.06 17.2 20.5 17.18 20.78 16.9C20.78 16.9 20.79 16.89 20.79 16.89C21.13 16.55 21.11 15.97 20.71 15.69C18.75 14.27 16.08 14.27 14.11 15.69C13.71 15.97 13.69 16.55 14.04 16.9C14.32 17.18 14.76 17.21 15.08 16.97Z" id="akWmq7x0c"></path></defs><g><g><g><use xlink:href="#a2uJMdD9HB" opacity="1" fill="#000000" fill-opacity="1"></use></g><g><use xlink:href="#d1OVvxTdM" opacity="1" fill="#ffffff" fill-opacity="1"></use><g><use xlink:href="#d1OVvxTdM" opacity="1" fill-opacity="0" stroke="#cecece" stroke-width="0" stroke-opacity="1"></use></g></g><g><use xlink:href="#akWmq7x0c" opacity="1" fill="#2196f3" fill-opacity="1"></use><g><use xlink:href="#akWmq7x0c" opacity="1" fill-opacity="0" stroke="#000000" stroke-width="1" stroke-opacity="0"></use></g></g></g></g></svg>